# xmcd
#
# Track frame offsets: 
#        150
#        16686
#        35403
#        57139
#        75435
#        105256
#        127141
#        143658
#        165720
#        181099
#
# Disc length: 2785 seconds
#
# Revision: 0
# Processed by: cddbd v1.5.2PL0 Copyright (c) Steve Scherf et al.
# Submitted via: ExactAudioCopy v0.99pb5
#
DISCID=6e0adf0a
DTITLE=Gillian Welsh - The Harrow and The Harvest
DYEAR=2011
DGENRE=Country
TTITLE0=Scarlet Town
TTITLE1=Dark Turn Of Mind
TTITLE2=The Way It Will Be
TTITLE3=The Way It Goes
TTITLE4=Tennessee
TTITLE5=Down Along The Dixie Line
TTITLE6=Six White Horses
TTITLE7=Hard Times
TTITLE8=Silver Dagger
TTITLE9=The Way The Whole Thing Ends
EXTD=
EXTT0=
EXTT1=
EXTT2=
EXTT3=
EXTT4=
EXTT5=
EXTT6=
EXTT7=
EXTT8=
EXTT9=
PLAYORDER=
